<?xml version="1.0" encoding="UTF-8" standalone="no"?>
<!DOCTYPE svg PUBLIC "-//W3C//DTD SVG 1.1//EN"
 "http://www.w3.org/Graphics/SVG/1.1/DTD/svg11.dtd">
<!-- Generated by graphviz version 2.40.1 (20161225.0304)
 -->
<!-- Title: G Pages: 1 -->
<svg width="466pt" height="130pt"
 viewBox="0.00 0.00 466.00 130.00" xmlns="http://www.w3.org/2000/svg" xmlns:xlink="http://www.w3.org/1999/xlink">
<g id="graph0" class="graph" transform="scale(1 1) rotate(0) translate(4 126)">
<title>G</title>
<polygon fill="#ffffff" stroke="transparent" points="-4,4 -4,-126 462,-126 462,4 -4,4"/>
<!-- A -->
<g id="node1" class="node">
<title>A</title>
<ellipse fill="none" stroke="#000000" cx="27" cy="-72" rx="27" ry="18"/>
<text text-anchor="middle" x="27" y="-68.3" font-family="Times,serif" font-size="14.00" fill="#000000">A</text>
</g>
<!-- B -->
<g id="node2" class="node">
<title>B</title>
<ellipse fill="none" stroke="#000000" cx="128" cy="-72" rx="27" ry="18"/>
<text text-anchor="middle" x="128" y="-68.3" font-family="Times,serif" font-size="14.00" fill="#000000">B</text>
</g>
<!-- A&#45;&gt;B -->
<g id="edge1" class="edge">
<title>A&#45;&gt;B</title>
<path fill="none" stroke="#000000" d="M54.0661,-72C68.5574,-72 86.3565,-72 100.8591,-72"/>
<text text-anchor="middle" x="77.5" y="-75.8" font-family="Times,serif" font-size="14.00" fill="#000000"> 5</text>
</g>
<!-- C -->
<g id="node3" class="node">
<title>C</title>
<ellipse fill="none" stroke="#000000" cx="229" cy="-104" rx="27" ry="18"/>
<text text-anchor="middle" x="229" y="-100.3" font-family="Times,serif" font-size="14.00" fill="#000000">C</text>
</g>
<!-- A&#45;&gt;C -->
<g id="edge2" class="edge">
<title>A&#45;&gt;C</title>
<path fill="none" stroke="#000000" d="M49.6681,-82.2501C56.7456,-85.2659 64.6301,-88.4398 72,-91 119.4988,-107.5003 133.7447,-108.6733 184,-107 189.7909,-106.8072 195.994,-106.4752 201.8871,-106.1005"/>
<text text-anchor="middle" x="128" y="-110.8" font-family="Times,serif" font-size="14.00" fill="#000000"> 10</text>
</g>
<!-- D -->
<g id="node4" class="node">
<title>D</title>
<ellipse fill="none" stroke="#000000" cx="128" cy="-18" rx="27" ry="18"/>
<text text-anchor="middle" x="128" y="-14.3" font-family="Times,serif" font-size="14.00" fill="#000000">D</text>
</g>
<!-- A&#45;&gt;D -->
<g id="edge3" class="edge">
<title>A&#45;&gt;D</title>
<path fill="none" stroke="#000000" d="M48.4195,-60.548C65.5595,-51.384 89.4795,-38.5951 106.6114,-29.4355"/>
<text text-anchor="middle" x="77.5" y="-50.8" font-family="Times,serif" font-size="14.00" fill="#000000"> 1</text>
</g>
<!-- B&#45;&gt;C -->
<g id="edge4" class="edge">
<title>B&#45;&gt;C</title>
<path fill="none" stroke="#000000" d="M152.4493,-79.7463C168.2122,-84.7405 188.6383,-91.2121 204.4258,-96.2141"/>
<text text-anchor="middle" x="178.5" y="-91.8" font-family="Times,serif" font-size="14.00" fill="#000000"> 8</text>
</g>
<!-- E -->
<g id="node5" class="node">
<title>E</title>
<ellipse fill="none" stroke="#000000" cx="229" cy="-50" rx="27" ry="18"/>
<text text-anchor="middle" x="229" y="-46.3" font-family="Times,serif" font-size="14.00" fill="#000000">E</text>
</g>
<!-- B&#45;&gt;E -->
<g id="edge5" class="edge">
<title>B&#45;&gt;E</title>
<path fill="none" stroke="#000000" d="M152.6175,-64.3019C159.1979,-62.4054 166.3342,-60.4926 173,-59 182.5129,-56.8698 193.0431,-55.0412 202.381,-53.5995"/>
<text text-anchor="middle" x="178.5" y="-62.8" font-family="Times,serif" font-size="14.00" fill="#000000"> 3</text>
</g>
<!-- F -->
<g id="node6" class="node">
<title>F</title>
<ellipse fill="none" stroke="#000000" cx="330" cy="-104" rx="27" ry="18"/>
<text text-anchor="middle" x="330" y="-100.3" font-family="Times,serif" font-size="14.00" fill="#000000">F</text>
</g>
<!-- C&#45;&gt;F -->
<g id="edge6" class="edge">
<title>C&#45;&gt;F</title>
<path fill="none" stroke="#000000" d="M256.0661,-104C270.5574,-104 288.3565,-104 302.8591,-104"/>
<text text-anchor="middle" x="279.5" y="-107.8" font-family="Times,serif" font-size="14.00" fill="#000000"> 5</text>
</g>
<!-- D&#45;&gt;E -->
<g id="edge7" class="edge">
<title>D&#45;&gt;E</title>
<path fill="none" stroke="#000000" d="M152.4493,-25.7463C168.2122,-30.7405 188.6383,-37.2121 204.4258,-42.2141"/>
<text text-anchor="middle" x="178.5" y="-38.8" font-family="Times,serif" font-size="14.00" fill="#000000"> 9</text>
</g>
<!-- G -->
<g id="node7" class="node">
<title>G</title>
<ellipse fill="none" stroke="#000000" cx="330" cy="-50" rx="27" ry="18"/>
<text text-anchor="middle" x="330" y="-46.3" font-family="Times,serif" font-size="14.00" fill="#000000">G</text>
</g>
<!-- E&#45;&gt;G -->
<g id="edge8" class="edge">
<title>E&#45;&gt;G</title>
<path fill="none" stroke="#000000" d="M256.0661,-50C270.5574,-50 288.3565,-50 302.8591,-50"/>
<text text-anchor="middle" x="279.5" y="-53.8" font-family="Times,serif" font-size="14.00" fill="#000000"> 5</text>
</g>
<!-- H -->
<g id="node8" class="node">
<title>H</title>
<ellipse fill="none" stroke="#000000" cx="431" cy="-77" rx="27" ry="18"/>
<text text-anchor="middle" x="431" y="-73.3" font-family="Times,serif" font-size="14.00" fill="#000000">H</text>
</g>
<!-- F&#45;&gt;H -->
<g id="edge9" class="edge">
<title>F&#45;&gt;H</title>
<path fill="none" stroke="#000000" d="M355.226,-97.2564C370.6512,-93.1328 390.3151,-87.8762 405.7455,-83.7512"/>
<text text-anchor="middle" x="380.5" y="-94.8" font-family="Times,serif" font-size="14.00" fill="#000000"> 2</text>
</g>
<!-- G&#45;&gt;H -->
<g id="edge10" class="edge">
<title>G&#45;&gt;H</title>
<path fill="none" stroke="#000000" d="M355.226,-56.7436C370.6512,-60.8672 390.3151,-66.1238 405.7455,-70.2488"/>
<text text-anchor="middle" x="380.5" y="-67.8" font-family="Times,serif" font-size="14.00" fill="#000000"> 3</text>
</g>
</g>
</svg>
