<?xml version="1.0" encoding="UTF-8" standalone="no"?>
<!DOCTYPE svg PUBLIC "-//W3C//DTD SVG 1.1//EN"
 "http://www.w3.org/Graphics/SVG/1.1/DTD/svg11.dtd">
<!-- Generated by graphviz version 2.38.0 (20140413.2041)
 -->
<!-- Title: G Pages: 1 -->
<svg width="382pt" height="247pt"
 viewBox="0.00 0.00 382.00 247.00" xmlns="http://www.w3.org/2000/svg" xmlns:xlink="http://www.w3.org/1999/xlink">
<g id="graph0" class="graph" transform="scale(1 1) rotate(0) translate(4 243)">
<title>G</title>
<polygon fill="white" stroke="none" points="-4,4 -4,-243 378,-243 378,4 -4,4"/>
<!-- starthere -->
<g id="node1" class="node"><title>starthere</title>
<text text-anchor="middle" x="102.5" y="-217.3" font-family="Times,serif" font-size="14.00" fill="red">start here...</text>
</g>
<!-- Fn -->
<g id="node2" class="node"><title>Fn</title>
<ellipse fill="none" stroke="black" cx="186.5" cy="-221" rx="27" ry="18"/>
<text text-anchor="middle" x="186.5" y="-217.3" font-family="Times,serif" font-size="14.00">F(n)</text>
</g>
<!-- starthere&#45;&#45;Fn -->
<g id="edge1" class="edge"><title>starthere&#45;&#45;Fn</title>
<path fill="none" stroke="red" d="M141.547,-221C144.159,-221 146.771,-221 149.383,-221"/>
<polygon fill="red" stroke="red" points="149.458,-224.5 159.458,-221 149.458,-217.5 149.458,-224.5"/>
</g>
<!-- Fn_1 -->
<g id="node3" class="node"><title>Fn_1</title>
<ellipse fill="none" stroke="black" cx="144.5" cy="-149" rx="33.2948" ry="18"/>
<text text-anchor="middle" x="144.5" y="-145.3" font-family="Times,serif" font-size="14.00">F(n&#45;1)</text>
</g>
<!-- Fn&#45;&#45;Fn_1 -->
<g id="edge2" class="edge"><title>Fn&#45;&#45;Fn_1</title>
<path fill="none" stroke="black" stroke-width="2" d="M176.97,-204.116C170.193,-192.821 161.117,-177.696 154.284,-166.307"/>
</g>
<!-- Fn_2 -->
<g id="node4" class="node"><title>Fn_2</title>
<ellipse fill="none" stroke="black" cx="228.5" cy="-149" rx="33.2948" ry="18"/>
<text text-anchor="middle" x="228.5" y="-145.3" font-family="Times,serif" font-size="14.00">F(n&#45;2)</text>
</g>
<!-- Fn&#45;&#45;Fn_2 -->
<g id="edge3" class="edge"><title>Fn&#45;&#45;Fn_2</title>
<path fill="none" stroke="black" stroke-width="2" d="M196.03,-204.116C202.807,-192.821 211.883,-177.696 218.716,-166.307"/>
</g>
<!-- Fn_1&#45;&#45;Fn_2 -->
<g id="edge17" class="edge"><title>Fn_1&#45;&#45;Fn_2</title>
</g>
<!-- Fn_2bis -->
<g id="node6" class="node"><title>Fn_2bis</title>
<ellipse fill="none" stroke="black" cx="60.5" cy="-77" rx="33.2948" ry="18"/>
<text text-anchor="middle" x="60.5" y="-73.3" font-family="Times,serif" font-size="14.00">F(n&#45;2)</text>
</g>
<!-- Fn_1&#45;&#45;Fn_2bis -->
<g id="edge5" class="edge"><title>Fn_1&#45;&#45;Fn_2bis</title>
<path fill="none" stroke="black" stroke-width="2" d="M127.095,-133.496C112.679,-121.482 92.2929,-104.494 77.8826,-92.4855"/>
</g>
<!-- Fn_3 -->
<g id="node7" class="node"><title>Fn_3</title>
<ellipse fill="none" stroke="black" cx="144.5" cy="-77" rx="33.2948" ry="18"/>
<text text-anchor="middle" x="144.5" y="-73.3" font-family="Times,serif" font-size="14.00">F(n&#45;3)</text>
</g>
<!-- Fn_1&#45;&#45;Fn_3 -->
<g id="edge6" class="edge"><title>Fn_1&#45;&#45;Fn_3</title>
<path fill="none" stroke="black" stroke-width="2" d="M144.5,-130.697C144.5,-119.846 144.5,-105.917 144.5,-95.1043"/>
</g>
<!-- Fn_3bis -->
<g id="node8" class="node"><title>Fn_3bis</title>
<ellipse fill="none" stroke="black" cx="228.5" cy="-77" rx="33.2948" ry="18"/>
<text text-anchor="middle" x="228.5" y="-73.3" font-family="Times,serif" font-size="14.00">F(n&#45;3)</text>
</g>
<!-- Fn_2&#45;&#45;Fn_3bis -->
<g id="edge7" class="edge"><title>Fn_2&#45;&#45;Fn_3bis</title>
<path fill="none" stroke="black" stroke-width="2" d="M228.5,-130.697C228.5,-119.846 228.5,-105.917 228.5,-95.1043"/>
</g>
<!-- Fn_4 -->
<g id="node9" class="node"><title>Fn_4</title>
<ellipse fill="none" stroke="black" cx="312.5" cy="-77" rx="33.2948" ry="18"/>
<text text-anchor="middle" x="312.5" y="-73.3" font-family="Times,serif" font-size="14.00">F(n&#45;4)</text>
</g>
<!-- Fn_2&#45;&#45;Fn_4 -->
<g id="edge8" class="edge"><title>Fn_2&#45;&#45;Fn_4</title>
<path fill="none" stroke="black" stroke-width="2" d="M245.905,-133.496C260.321,-121.482 280.707,-104.494 295.117,-92.4855"/>
</g>
<!-- thenhere -->
<g id="node5" class="node"><title>thenhere</title>
<text text-anchor="middle" x="54.5" y="-145.3" font-family="Times,serif" font-size="14.00" fill="red">...then here</text>
</g>
<!-- thenhere&#45;&#45;Fn_1 -->
<g id="edge4" class="edge"><title>thenhere&#45;&#45;Fn_1</title>
<path fill="none" stroke="red" d="M93.5234,-149C95.9876,-149 98.4518,-149 100.916,-149"/>
<polygon fill="red" stroke="red" points="101.047,-152.5 111.047,-149 101.047,-145.5 101.047,-152.5"/>
</g>
<!-- Fn_2bis&#45;&#45;Fn_3 -->
<g id="edge18" class="edge"><title>Fn_2bis&#45;&#45;Fn_3</title>
</g>
<!-- dots1 -->
<g id="node10" class="node"><title>dots1</title>
<text text-anchor="middle" x="15.5" y="-7.8" font-family="Times,serif" font-size="14.00">⋯</text>
</g>
<!-- Fn_2bis&#45;&#45;dots1 -->
<g id="edge9" class="edge"><title>Fn_2bis&#45;&#45;dots1</title>
<path fill="none" stroke="black" d="M49.1446,-59.9763C41.0211,-48.5131 30.3046,-33.3909 23.1719,-23.3259"/>
</g>
<!-- dots2 -->
<g id="node11" class="node"><title>dots2</title>
<text text-anchor="middle" x="64.5" y="-7.8" font-family="Times,serif" font-size="14.00">⋯</text>
</g>
<!-- Fn_2bis&#45;&#45;dots2 -->
<g id="edge10" class="edge"><title>Fn_2bis&#45;&#45;dots2</title>
<path fill="none" stroke="black" d="M61.5719,-58.9832C62.2847,-47.6681 63.1995,-33.1453 63.8154,-23.3687"/>
</g>
<!-- dots3 -->
<g id="node12" class="node"><title>dots3</title>
<text text-anchor="middle" x="113.5" y="-7.8" font-family="Times,serif" font-size="14.00">⋯</text>
</g>
<!-- Fn_3&#45;&#45;dots3 -->
<g id="edge11" class="edge"><title>Fn_3&#45;&#45;dots3</title>
<path fill="none" stroke="black" d="M136.355,-59.3161C130.758,-47.8514 123.496,-32.9747 118.676,-23.1017"/>
</g>
<!-- dots4 -->
<g id="node13" class="node"><title>dots4</title>
<text text-anchor="middle" x="162.5" y="-7.8" font-family="Times,serif" font-size="14.00">⋯</text>
</g>
<!-- Fn_3&#45;&#45;dots4 -->
<g id="edge12" class="edge"><title>Fn_3&#45;&#45;dots4</title>
<path fill="none" stroke="black" d="M149.324,-58.9832C152.531,-47.6681 156.648,-33.1453 159.419,-23.3687"/>
</g>
<!-- Fn_3bis&#45;&#45;Fn_4 -->
<g id="edge19" class="edge"><title>Fn_3bis&#45;&#45;Fn_4</title>
</g>
<!-- dots5 -->
<g id="node14" class="node"><title>dots5</title>
<text text-anchor="middle" x="211.5" y="-7.8" font-family="Times,serif" font-size="14.00">⋯</text>
</g>
<!-- Fn_3bis&#45;&#45;dots5 -->
<g id="edge13" class="edge"><title>Fn_3bis&#45;&#45;dots5</title>
<path fill="none" stroke="black" d="M223.944,-58.9832C220.915,-47.6681 217.027,-33.1453 214.41,-23.3687"/>
</g>
<!-- dots6 -->
<g id="node15" class="node"><title>dots6</title>
<text text-anchor="middle" x="260.5" y="-7.8" font-family="Times,serif" font-size="14.00">⋯</text>
</g>
<!-- Fn_3bis&#45;&#45;dots6 -->
<g id="edge14" class="edge"><title>Fn_3bis&#45;&#45;dots6</title>
<path fill="none" stroke="black" d="M236.908,-59.3161C242.685,-47.8514 250.182,-32.9747 255.157,-23.1017"/>
</g>
<!-- dots7 -->
<g id="node16" class="node"><title>dots7</title>
<text text-anchor="middle" x="309.5" y="-7.8" font-family="Times,serif" font-size="14.00">⋯</text>
</g>
<!-- Fn_4&#45;&#45;dots7 -->
<g id="edge15" class="edge"><title>Fn_4&#45;&#45;dots7</title>
<path fill="none" stroke="black" d="M311.696,-58.9832C311.161,-47.6681 310.475,-33.1453 310.013,-23.3687"/>
</g>
<!-- dots8 -->
<g id="node17" class="node"><title>dots8</title>
<text text-anchor="middle" x="358.5" y="-7.8" font-family="Times,serif" font-size="14.00">⋯</text>
</g>
<!-- Fn_4&#45;&#45;dots8 -->
<g id="edge16" class="edge"><title>Fn_4&#45;&#45;dots8</title>
<path fill="none" stroke="black" d="M324.108,-59.9763C332.412,-48.5131 343.366,-33.3909 350.658,-23.3259"/>
</g>
<!-- dots1&#45;&#45;dots2 -->
<g id="edge20" class="edge"><title>dots1&#45;&#45;dots2</title>
</g>
<!-- dots2&#45;&#45;dots3 -->
<g id="edge21" class="edge"><title>dots2&#45;&#45;dots3</title>
</g>
<!-- dots3&#45;&#45;dots4 -->
<g id="edge22" class="edge"><title>dots3&#45;&#45;dots4</title>
</g>
<!-- dots4&#45;&#45;dots5 -->
<g id="edge23" class="edge"><title>dots4&#45;&#45;dots5</title>
</g>
<!-- dots5&#45;&#45;dots6 -->
<g id="edge24" class="edge"><title>dots5&#45;&#45;dots6</title>
</g>
<!-- dots6&#45;&#45;dots7 -->
<g id="edge25" class="edge"><title>dots6&#45;&#45;dots7</title>
</g>
<!-- dots7&#45;&#45;dots8 -->
<g id="edge26" class="edge"><title>dots7&#45;&#45;dots8</title>
</g>
</g>
</svg>
