<?xml version="1.0" encoding="UTF-8" standalone="no"?>
<!DOCTYPE svg PUBLIC "-//W3C//DTD SVG 1.1//EN"
 "http://www.w3.org/Graphics/SVG/1.1/DTD/svg11.dtd">
<!-- Generated by graphviz version 2.38.0 (20140413.2041)
 -->
<!-- Title: G Pages: 1 -->
<svg width="206pt" height="68pt"
 viewBox="0.00 0.00 206.00 68.49" xmlns="http://www.w3.org/2000/svg" xmlns:xlink="http://www.w3.org/1999/xlink">
<g id="graph0" class="graph" transform="scale(1 1) rotate(0) translate(4 64.4878)">
<title>G</title>
<polygon fill="white" stroke="none" points="-4,4 -4,-64.4878 202,-64.4878 202,4 -4,4"/>
<!-- A -->
<g id="node1" class="node"><title>A</title>
<ellipse fill="none" stroke="black" cx="27" cy="-18" rx="27" ry="18"/>
<text text-anchor="middle" x="27" y="-14.3" font-family="Times,serif" font-size="14.00">A</text>
</g>
<!-- B -->
<g id="node2" class="node"><title>B</title>
<ellipse fill="none" stroke="black" cx="99" cy="-18" rx="27" ry="18"/>
<text text-anchor="middle" x="99" y="-14.3" font-family="Times,serif" font-size="14.00">B</text>
</g>
<!-- A&#45;&gt;B -->
<g id="edge1" class="edge"><title>A&#45;&gt;B</title>
<path fill="none" stroke="black" d="M54,-18C56.6147,-18 59.2295,-18 61.8442,-18"/>
<polygon fill="black" stroke="black" points="61.9297,-21.5001 71.9297,-18 61.9297,-14.5001 61.9297,-21.5001"/>
</g>
<!-- C -->
<g id="node3" class="node"><title>C</title>
<ellipse fill="none" stroke="black" cx="171" cy="-18" rx="27" ry="18"/>
<text text-anchor="middle" x="171" y="-14.3" font-family="Times,serif" font-size="14.00">C</text>
</g>
<!-- B&#45;&gt;C -->
<g id="edge2" class="edge"><title>B&#45;&gt;C</title>
<path fill="none" stroke="black" d="M126,-18C128.615,-18 131.229,-18 133.844,-18"/>
<polygon fill="black" stroke="black" points="133.93,-21.5001 143.93,-18 133.93,-14.5001 133.93,-21.5001"/>
</g>
<!-- C&#45;&gt;A -->
<g id="edge3" class="edge"><title>C:n&#45;&gt;A:n</title>
<path fill="none" stroke="black" d="M171,-36C171,-64.625 55.7732,-67.644 31.4675,-45.0571"/>
<polygon fill="black" stroke="black" points="34.5627,-43.42 27,-36 28.2849,-46.5166 34.5627,-43.42"/>
</g>
</g>
</svg>
