<?xml version="1.0" encoding="UTF-8" standalone="no"?>
<!DOCTYPE svg PUBLIC "-//W3C//DTD SVG 1.1//EN"
 "http://www.w3.org/Graphics/SVG/1.1/DTD/svg11.dtd">
<!-- Generated by graphviz version 2.38.0 (20140413.2041)
 -->
<!-- Title: G Pages: 1 -->
<svg width="343pt" height="190pt"
 viewBox="0.00 0.00 343.00 190.00" xmlns="http://www.w3.org/2000/svg" xmlns:xlink="http://www.w3.org/1999/xlink">
<g id="graph0" class="graph" transform="scale(1 1) rotate(0) translate(4 186)">
<title>G</title>
<polygon fill="white" stroke="none" points="-4,4 -4,-186 339,-186 339,4 -4,4"/>
<!-- A1 -->
<g id="node1" class="node"><title>A1</title>
<ellipse fill="none" stroke="black" cx="27" cy="-164" rx="27" ry="18"/>
<text text-anchor="middle" x="27" y="-160.3" font-family="Times,serif" font-size="14.00">A</text>
</g>
<!-- B1 -->
<g id="node2" class="node"><title>B1</title>
<ellipse fill="none" stroke="black" cx="117" cy="-164" rx="27" ry="18"/>
<text text-anchor="middle" x="117" y="-160.3" font-family="Times,serif" font-size="14.00">B</text>
</g>
<!-- A1&#45;&gt;B1 -->
<g id="edge1" class="edge"><title>A1&#45;&gt;B1</title>
</g>
<!-- A2 -->
<g id="node5" class="node"><title>A2</title>
<ellipse fill="none" stroke="black" cx="27" cy="-91" rx="27" ry="18"/>
<text text-anchor="middle" x="27" y="-87.3" font-family="Times,serif" font-size="14.00">A</text>
</g>
<!-- A1&#45;&gt;A2 -->
<g id="edge9" class="edge"><title>A1&#45;&gt;A2</title>
</g>
<!-- B2 -->
<g id="node6" class="node"><title>B2</title>
<ellipse fill="none" stroke="black" cx="117" cy="-91" rx="27" ry="18"/>
<text text-anchor="middle" x="117" y="-87.3" font-family="Times,serif" font-size="14.00">B</text>
</g>
<!-- A1&#45;&gt;B2 -->
<g id="edge10" class="edge"><title>A1&#45;&gt;B2</title>
<path fill="none" stroke="black" d="M43.9283,-149.645C57.5047,-138.935 76.757,-123.747 92.0921,-111.65"/>
<polygon fill="black" stroke="black" points="94.4643,-114.236 100.148,-105.295 90.1287,-108.74 94.4643,-114.236"/>
</g>
<!-- C1 -->
<g id="node3" class="node"><title>C1</title>
<ellipse fill="none" stroke="black" cx="207" cy="-164" rx="27" ry="18"/>
<text text-anchor="middle" x="207" y="-160.3" font-family="Times,serif" font-size="14.00">C</text>
</g>
<!-- B1&#45;&gt;C1 -->
<g id="edge2" class="edge"><title>B1&#45;&gt;C1</title>
</g>
<!-- C2 -->
<g id="node7" class="node"><title>C2</title>
<ellipse fill="none" stroke="black" cx="207" cy="-91" rx="27" ry="18"/>
<text text-anchor="middle" x="207" y="-87.3" font-family="Times,serif" font-size="14.00">C</text>
</g>
<!-- B1&#45;&gt;C2 -->
<g id="edge11" class="edge"><title>B1&#45;&gt;C2</title>
<path fill="none" stroke="black" d="M133.928,-149.645C147.505,-138.935 166.757,-123.747 182.092,-111.65"/>
<polygon fill="black" stroke="black" points="184.464,-114.236 190.148,-105.295 180.129,-108.74 184.464,-114.236"/>
</g>
<!-- left1 -->
<g id="node4" class="node"><title>left1</title>
</g>
<!-- C1&#45;&gt;left1 -->
<g id="edge3" class="edge"><title>C1&#45;&gt;left1</title>
</g>
<!-- C1&#45;&gt;A2 -->
<g id="edge12" class="edge"><title>C1&#45;&gt;A2</title>
<path fill="none" stroke="black" d="M184.203,-154.008C152.555,-141.524 95.1477,-118.88 59.1563,-104.684"/>
<polygon fill="black" stroke="black" points="60.1988,-101.333 49.612,-100.919 57.6302,-107.844 60.1988,-101.333"/>
</g>
<!-- left3 -->
<g id="node11" class="node"><title>left3</title>
</g>
<!-- left1&#45;&gt;left3 -->
<g id="edge17" class="edge"><title>left1&#45;&gt;left3</title>
<path fill="none" stroke="black" d="M298,-147.589C298,-122.905 298,-74.2474 298,-44.3759"/>
<polygon fill="black" stroke="black" points="301.5,-44.2997 298,-34.2997 294.5,-44.2998 301.5,-44.2997"/>
<text text-anchor="middle" x="316.5" y="-87.3" font-family="Times,serif" font-size="14.00"> temps</text>
</g>
<!-- A2&#45;&gt;B2 -->
<g id="edge4" class="edge"><title>A2&#45;&gt;B2</title>
</g>
<!-- A3 -->
<g id="node8" class="node"><title>A3</title>
<ellipse fill="none" stroke="black" cx="27" cy="-18" rx="27" ry="18"/>
<text text-anchor="middle" x="27" y="-14.3" font-family="Times,serif" font-size="14.00">A</text>
</g>
<!-- A2&#45;&gt;A3 -->
<g id="edge13" class="edge"><title>A2&#45;&gt;A3</title>
</g>
<!-- B3 -->
<g id="node9" class="node"><title>B3</title>
<ellipse fill="none" stroke="black" cx="117" cy="-18" rx="27" ry="18"/>
<text text-anchor="middle" x="117" y="-14.3" font-family="Times,serif" font-size="14.00">B</text>
</g>
<!-- A2&#45;&gt;B3 -->
<g id="edge14" class="edge"><title>A2&#45;&gt;B3</title>
<path fill="none" stroke="black" d="M43.9283,-76.6454C57.5047,-65.9352 76.757,-50.7472 92.0921,-38.6496"/>
<polygon fill="black" stroke="black" points="94.4643,-41.2362 100.148,-32.2947 90.1287,-35.7404 94.4643,-41.2362"/>
</g>
<!-- B2&#45;&gt;C2 -->
<g id="edge5" class="edge"><title>B2&#45;&gt;C2</title>
</g>
<!-- C3 -->
<g id="node10" class="node"><title>C3</title>
<ellipse fill="none" stroke="black" cx="207" cy="-18" rx="27" ry="18"/>
<text text-anchor="middle" x="207" y="-14.3" font-family="Times,serif" font-size="14.00">C</text>
</g>
<!-- B2&#45;&gt;C3 -->
<g id="edge15" class="edge"><title>B2&#45;&gt;C3</title>
<path fill="none" stroke="black" d="M133.928,-76.6454C147.505,-65.9352 166.757,-50.7472 182.092,-38.6496"/>
<polygon fill="black" stroke="black" points="184.464,-41.2362 190.148,-32.2947 180.129,-35.7404 184.464,-41.2362"/>
</g>
<!-- C2&#45;&gt;A3 -->
<g id="edge16" class="edge"><title>C2&#45;&gt;A3</title>
<path fill="none" stroke="black" d="M184.203,-81.0078C152.555,-68.5243 95.1477,-45.8805 59.1563,-31.6839"/>
<polygon fill="black" stroke="black" points="60.1988,-28.3327 49.612,-27.9192 57.6302,-34.8444 60.1988,-28.3327"/>
</g>
<!-- A3&#45;&gt;B3 -->
<g id="edge6" class="edge"><title>A3&#45;&gt;B3</title>
</g>
<!-- B3&#45;&gt;C3 -->
<g id="edge7" class="edge"><title>B3&#45;&gt;C3</title>
</g>
<!-- C3&#45;&gt;left3 -->
<g id="edge8" class="edge"><title>C3&#45;&gt;left3</title>
</g>
</g>
</svg>
