<?xml version="1.0" encoding="UTF-8" standalone="no"?>
<!DOCTYPE svg PUBLIC "-//W3C//DTD SVG 1.1//EN"
 "http://www.w3.org/Graphics/SVG/1.1/DTD/svg11.dtd">
<!-- Generated by graphviz version 2.38.0 (20140413.2041)
 -->
<!-- Title: cyclic Pages: 1 -->
<svg width="360pt" height="147pt"
 viewBox="0.00 0.00 360.00 147.15" xmlns="http://www.w3.org/2000/svg" xmlns:xlink="http://www.w3.org/1999/xlink">
<g id="graph0" class="graph" transform="scale(2.62774 2.62774) rotate(0) translate(4 52)">
<title>cyclic</title>
<polygon fill="white" stroke="none" points="-4,4 -4,-52 133,-52 133,4 -4,4"/>
<!-- N -->
<g id="node1" class="node"><title>N</title>
<polygon fill="none" stroke="black" points="0,-12.5 0,-35.5 129,-35.5 129,-12.5 0,-12.5"/>
<text text-anchor="middle" x="13" y="-20.3" font-family="Times,serif" font-size="14.00">A</text>
<polyline fill="none" stroke="black" points="26,-12.5 26,-35.5 "/>
<text text-anchor="middle" x="39" y="-20.3" font-family="Times,serif" font-size="14.00">B</text>
<polyline fill="none" stroke="black" points="52,-12.5 52,-35.5 "/>
<text text-anchor="middle" x="65" y="-20.3" font-family="Times,serif" font-size="14.00">C</text>
<polyline fill="none" stroke="black" points="78,-12.5 78,-35.5 "/>
<text text-anchor="middle" x="91" y="-20.3" font-family="Times,serif" font-size="14.00">D</text>
<polyline fill="none" stroke="black" points="104,-12.5 104,-35.5 "/>
<text text-anchor="middle" x="116.5" y="-20.3" font-family="Times,serif" font-size="14.00">E</text>
</g>
<!-- N&#45;&gt;N -->
<g id="edge1" class="edge"><title>N:A:n&#45;&gt;N:B:n</title>
<path fill="none" stroke="red" d="M12.5,-36C10.5,-40 10.5,-48 25.5,-48 33.4688,-48 37.2041,-45.7422 38.6552,-43.0258"/>
<polygon fill="red" stroke="red" points="38.5,-36 41.8039,-42.9287 38.5773,-39.4991 38.6547,-42.9983 38.6547,-42.9983 38.6547,-42.9983 38.5773,-39.4991 35.5054,-43.0679 38.5,-36 38.5,-36"/>
</g>
<!-- N&#45;&gt;N -->
<g id="edge2" class="edge"><title>N:B:n&#45;&gt;N:C:n</title>
<path fill="none" stroke="red" d="M38.5,-36C36.5,-40 36.5,-48 52,-48 60.2344,-48 64.0942,-45.7422 65.6037,-43.0258"/>
<polygon fill="red" stroke="red" points="65.5,-36 68.753,-42.9527 65.5517,-39.4996 65.6034,-42.9992 65.6034,-42.9992 65.6034,-42.9992 65.5517,-39.4996 62.4537,-43.0458 65.5,-36 65.5,-36"/>
</g>
<!-- N&#45;&gt;N -->
<g id="edge3" class="edge"><title>N:C:n&#45;&gt;N:E:n</title>
<path fill="none" stroke="red" d="M65.5,-36C63.5,-40 63.5,-48 91,-48 105.609,-48 112.458,-45.7422 115.368,-43.0258"/>
<polygon fill="red" stroke="red" points="116.5,-36 118.496,-43.4121 115.943,-39.4554 115.386,-42.9108 115.386,-42.9108 115.386,-42.9108 115.943,-39.4554 112.276,-42.4096 116.5,-36 116.5,-36"/>
</g>
<!-- N&#45;&gt;N -->
<g id="edge4" class="edge"><title>N:E:s&#45;&gt;N:D:s</title>
<path fill="none" stroke="red" d="M116.5,-12C118.5,-8 118.5,-0 104,-0 96.2969,-0 92.686,-2.25781 91.2933,-4.97424"/>
<polygon fill="red" stroke="red" points="91.5,-12 88.1454,-5.0957 91.397,-8.50151 91.2941,-5.00303 91.2941,-5.00303 91.2941,-5.00303 91.397,-8.50151 94.4427,-4.91036 91.5,-12 91.5,-12"/>
</g>
<!-- N&#45;&gt;N -->
<g id="edge5" class="edge"><title>N:D:s&#45;&gt;N:A:s</title>
<path fill="none" stroke="red" d="M91.5,-12C93.5,-8 93.5,-0 52,-0 29.3047,-0 19.0209,-2.39258 14.6881,-5.21507"/>
<polygon fill="red" stroke="red" points="12.5,-12 11.6506,-4.37101 13.5743,-8.66894 14.6486,-5.33788 14.6486,-5.33788 14.6486,-5.33788 13.5743,-8.66894 17.6465,-6.30474 12.5,-12 12.5,-12"/>
</g>
</g>
</svg>
