<?xml version="1.0" encoding="UTF-8" standalone="no"?>
<!DOCTYPE svg PUBLIC "-//W3C//DTD SVG 1.1//EN"
 "http://www.w3.org/Graphics/SVG/1.1/DTD/svg11.dtd">
<!-- Generated by graphviz version 2.38.0 (20140413.2041)
 -->
<!-- Title: identity Pages: 1 -->
<svg width="360pt" height="116pt"
 viewBox="0.00 0.00 360.00 115.62" xmlns="http://www.w3.org/2000/svg" xmlns:xlink="http://www.w3.org/1999/xlink">
<g id="graph0" class="graph" transform="scale(2.62774 2.62774) rotate(0) translate(4 40)">
<title>identity</title>
<polygon fill="white" stroke="none" points="-4,4 -4,-40 133,-40 133,4 -4,4"/>
<!-- N -->
<g id="node1" class="node"><title>N</title>
<polygon fill="none" stroke="black" points="0,-0.5 0,-23.5 129,-23.5 129,-0.5 0,-0.5"/>
<text text-anchor="middle" x="13" y="-8.3" font-family="Times,serif" font-size="14.00">A</text>
<polyline fill="none" stroke="black" points="26,-0.5 26,-23.5 "/>
<text text-anchor="middle" x="39" y="-8.3" font-family="Times,serif" font-size="14.00">B</text>
<polyline fill="none" stroke="black" points="52,-0.5 52,-23.5 "/>
<text text-anchor="middle" x="65" y="-8.3" font-family="Times,serif" font-size="14.00">C</text>
<polyline fill="none" stroke="black" points="78,-0.5 78,-23.5 "/>
<text text-anchor="middle" x="91" y="-8.3" font-family="Times,serif" font-size="14.00">D</text>
<polyline fill="none" stroke="black" points="104,-0.5 104,-23.5 "/>
<text text-anchor="middle" x="116.5" y="-8.3" font-family="Times,serif" font-size="14.00">E</text>
</g>
<!-- N&#45;&gt;N -->
<g id="edge1" class="edge"><title>N:A:n&#45;&gt;N:A:n</title>
<path fill="none" stroke="red" d="M12.5,-24C14.5,-28 14.5,-36 12.5,-36 11.4375,-36 10.9395,-33.7422 11.0059,-31.0258"/>
<polygon fill="red" stroke="red" points="12.5,-24 14.1249,-31.5022 11.7719,-27.4234 11.0438,-30.8469 11.0438,-30.8469 11.0438,-30.8469 11.7719,-27.4234 7.96273,-30.1916 12.5,-24 12.5,-24"/>
</g>
<!-- N&#45;&gt;N -->
<g id="edge2" class="edge"><title>N:B:n&#45;&gt;N:B:n</title>
<path fill="none" stroke="red" d="M38.5,-24C40.5,-28 40.5,-36 38.5,-36 37.4375,-36 36.9395,-33.7422 37.0059,-31.0258"/>
<polygon fill="red" stroke="red" points="38.5,-24 40.1249,-31.5022 37.7719,-27.4234 37.0438,-30.8469 37.0438,-30.8469 37.0438,-30.8469 37.7719,-27.4234 33.9627,-30.1916 38.5,-24 38.5,-24"/>
</g>
<!-- N&#45;&gt;N -->
<g id="edge3" class="edge"><title>N:C:n&#45;&gt;N:C:n</title>
<path fill="none" stroke="red" d="M65.5,-24C67.5,-28 67.5,-36 65.5,-36 64.4375,-36 63.9395,-33.7422 64.0059,-31.0258"/>
<polygon fill="red" stroke="red" points="65.5,-24 67.1249,-31.5022 64.7719,-27.4234 64.0438,-30.8469 64.0438,-30.8469 64.0438,-30.8469 64.7719,-27.4234 60.9627,-30.1916 65.5,-24 65.5,-24"/>
</g>
<!-- N&#45;&gt;N -->
<g id="edge4" class="edge"><title>N:D:n&#45;&gt;N:D:n</title>
<path fill="none" stroke="red" d="M91.5,-24C93.5,-28 93.5,-36 91.5,-36 90.4375,-36 89.9395,-33.7422 90.0059,-31.0258"/>
<polygon fill="red" stroke="red" points="91.5,-24 93.1249,-31.5022 90.7719,-27.4234 90.0438,-30.8469 90.0438,-30.8469 90.0438,-30.8469 90.7719,-27.4234 86.9627,-30.1916 91.5,-24 91.5,-24"/>
</g>
<!-- N&#45;&gt;N -->
<g id="edge5" class="edge"><title>N:E:n&#45;&gt;N:E:n</title>
<path fill="none" stroke="red" d="M116.5,-24C118.5,-28 118.5,-36 116.5,-36 115.438,-36 114.939,-33.7422 115.006,-31.0258"/>
<polygon fill="red" stroke="red" points="116.5,-24 118.125,-31.5022 115.772,-27.4234 115.044,-30.8469 115.044,-30.8469 115.044,-30.8469 115.772,-27.4234 111.963,-30.1916 116.5,-24 116.5,-24"/>
</g>
</g>
</svg>
