<?xml version="1.0" encoding="UTF-8" standalone="no"?>
<!DOCTYPE svg PUBLIC "-//W3C//DTD SVG 1.1//EN"
 "http://www.w3.org/Graphics/SVG/1.1/DTD/svg11.dtd">
<!-- Generated by graphviz version 2.38.0 (20140413.2041)
 -->
<!-- Title: G Pages: 1 -->
<svg width="508pt" height="101pt"
 viewBox="0.00 0.00 508.00 101.08" xmlns="http://www.w3.org/2000/svg" xmlns:xlink="http://www.w3.org/1999/xlink">
<g id="graph0" class="graph" transform="scale(1 1) rotate(0) translate(4 97.0839)">
<title>G</title>
<polygon fill="white" stroke="none" points="-4,4 -4,-97.0839 504,-97.0839 504,4 -4,4"/>
<!-- F0 -->
<g id="node1" class="node"><title>F0</title>
<ellipse fill="none" stroke="black" cx="27" cy="-47.5554" rx="27" ry="18"/>
<text text-anchor="middle" x="27" y="-43.8554" font-family="Times,serif" font-size="14.00">F(0)</text>
</g>
<!-- F1 -->
<g id="node2" class="node"><title>F1</title>
<ellipse fill="none" stroke="black" cx="99" cy="-47.5554" rx="27" ry="18"/>
<text text-anchor="middle" x="99" y="-43.8554" font-family="Times,serif" font-size="14.00">F(1)</text>
</g>
<!-- F0&#45;&gt;F1 -->
<g id="edge1" class="edge"><title>F0&#45;&gt;F1</title>
</g>
<!-- dots -->
<g id="node3" class="node"><title>dots</title>
<text text-anchor="middle" x="160" y="-43.8554" font-family="Times,serif" font-size="14.00">⋯</text>
</g>
<!-- F1&#45;&gt;dots -->
<g id="edge2" class="edge"><title>F1&#45;&gt;dots</title>
</g>
<!-- Fn_3 -->
<g id="node4" class="node"><title>Fn_3</title>
<ellipse fill="none" stroke="black" cx="227" cy="-47.5554" rx="33.2948" ry="18"/>
<text text-anchor="middle" x="227" y="-43.8554" font-family="Times,serif" font-size="14.00">F(n&#45;3)</text>
</g>
<!-- dots&#45;&gt;Fn_3 -->
<g id="edge3" class="edge"><title>dots&#45;&gt;Fn_3</title>
</g>
<!-- Fn_2 -->
<g id="node5" class="node"><title>Fn_2</title>
<ellipse fill="none" stroke="black" cx="311" cy="-47.5554" rx="33.2948" ry="18"/>
<text text-anchor="middle" x="311" y="-43.8554" font-family="Times,serif" font-size="14.00">F(n&#45;2)</text>
</g>
<!-- Fn_3&#45;&gt;Fn_2 -->
<g id="edge4" class="edge"><title>Fn_3&#45;&gt;Fn_2</title>
</g>
<!-- Fn_1 -->
<g id="node6" class="node"><title>Fn_1</title>
<ellipse fill="none" stroke="black" cx="395" cy="-47.5554" rx="33.2948" ry="18"/>
<text text-anchor="middle" x="395" y="-43.8554" font-family="Times,serif" font-size="14.00">F(n&#45;1)</text>
</g>
<!-- Fn_2&#45;&gt;Fn_1 -->
<g id="edge5" class="edge"><title>Fn_2&#45;&gt;Fn_1</title>
</g>
<!-- Fn_1&#45;&gt;Fn_3 -->
<g id="edge10" class="edge"><title>Fn_1:s&#45;&gt;Fn_3:s</title>
<path fill="none" stroke="black" d="M395,-29.5554C395,4.27791 257.023,7.44979 231.153,-20.0398"/>
<polygon fill="black" stroke="black" points="227.792,-18.9902 227,-29.5554 234.208,-21.7902 227.792,-18.9902"/>
</g>
<!-- Fn_1&#45;&gt;Fn_2 -->
<g id="edge9" class="edge"><title>Fn_1:s&#45;&gt;Fn_2:s</title>
<path fill="none" stroke="black" d="M395,-28.5554C395,5.13208 326.605,8.42188 313.247,-18.686"/>
<polygon fill="black" stroke="black" points="309.807,-18.028 311,-28.5554 316.633,-19.5818 309.807,-18.028"/>
</g>
<!-- Fn -->
<g id="node7" class="node"><title>Fn</title>
<ellipse fill="none" stroke="black" cx="473" cy="-47.5554" rx="27" ry="18"/>
<text text-anchor="middle" x="473" y="-43.8554" font-family="Times,serif" font-size="14.00">F(n)</text>
</g>
<!-- Fn_1&#45;&gt;Fn -->
<g id="edge6" class="edge"><title>Fn_1&#45;&gt;Fn</title>
</g>
<!-- Fn&#45;&gt;Fn_2 -->
<g id="edge8" class="edge"><title>Fn:n&#45;&gt;Fn_2:n</title>
<path fill="none" stroke="black" d="M473,-65.5554C473,-98.1804 339.951,-101.239 315.005,-74.7312"/>
<polygon fill="black" stroke="black" points="318.208,-73.3206 311,-65.5554 311.792,-76.1206 318.208,-73.3206"/>
</g>
<!-- Fn&#45;&gt;Fn_1 -->
<g id="edge7" class="edge"><title>Fn:n&#45;&gt;Fn_1:n</title>
<path fill="none" stroke="black" d="M473,-66.5554C473,-97.5658 410.585,-100.836 397.42,-76.3673"/>
<polygon fill="black" stroke="black" points="400.793,-75.4264 395,-66.5554 393.996,-77.1026 400.793,-75.4264"/>
</g>
</g>
</svg>
