<?xml version="1.0" encoding="UTF-8" standalone="no"?>
<!DOCTYPE svg PUBLIC "-//W3C//DTD SVG 1.1//EN"
 "http://www.w3.org/Graphics/SVG/1.1/DTD/svg11.dtd">
<!-- Generated by graphviz version 2.38.0 (20140413.2041)
 -->
<!-- Title: G Pages: 1 -->
<svg width="662pt" height="175pt"
 viewBox="0.00 0.00 662.00 175.00" xmlns="http://www.w3.org/2000/svg" xmlns:xlink="http://www.w3.org/1999/xlink">
<g id="graph0" class="graph" transform="scale(1 1) rotate(0) translate(4 171)">
<title>G</title>
<polygon fill="white" stroke="none" points="-4,4 -4,-171 658,-171 658,4 -4,4"/>
<!-- dots1 -->
<g id="node1" class="node"><title>dots1</title>
<text text-anchor="middle" x="321" y="-151.8" font-family="Times,serif" font-size="14.00">⋯</text>
</g>
<!-- F2ter -->
<g id="node2" class="node"><title>F2ter</title>
<ellipse fill="none" stroke="black" cx="213" cy="-90" rx="27" ry="18"/>
<text text-anchor="middle" x="213" y="-86.3" font-family="Times,serif" font-size="14.00">F2</text>
</g>
<!-- dots1&#45;&gt;F2ter -->
<g id="edge1" class="edge"><title>dots1&#45;&gt;F2ter</title>
<path fill="none" stroke="black" stroke-width="2" d="M305.064,-145.13C285.819,-133.815 253.448,-114.782 232.668,-102.564"/>
</g>
<!-- F3ter -->
<g id="node3" class="node"><title>F3ter</title>
<ellipse fill="none" stroke="black" cx="321" cy="-90" rx="27" ry="18"/>
<text text-anchor="middle" x="321" y="-86.3" font-family="Times,serif" font-size="14.00">F3</text>
</g>
<!-- dots1&#45;&gt;F3ter -->
<g id="edge2" class="edge"><title>dots1&#45;&gt;F3ter</title>
<path fill="none" stroke="black" stroke-width="2" d="M321,-143.728C321,-133.962 321,-119.403 321,-108.056"/>
</g>
<!-- dots2 -->
<g id="node4" class="node"><title>dots2</title>
<text text-anchor="middle" x="429" y="-151.8" font-family="Times,serif" font-size="14.00">⋯</text>
</g>
<!-- dots1&#45;&gt;dots2 -->
<g id="edge15" class="edge"><title>dots1&#45;&gt;dots2</title>
</g>
<!-- F2ter&#45;&gt;F3ter -->
<g id="edge16" class="edge"><title>F2ter&#45;&gt;F3ter</title>
</g>
<!-- F0 -->
<g id="node7" class="node"><title>F0</title>
<ellipse fill="#ffb8b8" stroke="black" cx="123" cy="-18" rx="27" ry="18"/>
<text text-anchor="middle" x="123" y="-14.3" font-family="Times,serif" font-size="14.00">F0</text>
</g>
<!-- F2ter&#45;&gt;F0 -->
<g id="edge5" class="edge"><title>F2ter&#45;&gt;F0</title>
<path fill="none" stroke="black" stroke-width="2" d="M196.072,-75.8335C179.981,-63.3186 155.918,-44.6028 139.852,-32.1074"/>
</g>
<!-- F1 -->
<g id="node8" class="node"><title>F1</title>
<ellipse fill="#ffb8b8" stroke="black" cx="195" cy="-18" rx="27" ry="18"/>
<text text-anchor="middle" x="195" y="-14.3" font-family="Times,serif" font-size="14.00">F1</text>
</g>
<!-- F2ter&#45;&gt;F1 -->
<g id="edge6" class="edge"><title>F2ter&#45;&gt;F1</title>
<path fill="none" stroke="black" stroke-width="2" d="M208.643,-72.055C205.813,-61.0492 202.139,-46.7636 199.317,-35.789"/>
</g>
<!-- F4bis -->
<g id="node5" class="node"><title>F4bis</title>
<ellipse fill="none" stroke="black" cx="429" cy="-90" rx="27" ry="18"/>
<text text-anchor="middle" x="429" y="-86.3" font-family="Times,serif" font-size="14.00">F4</text>
</g>
<!-- F3ter&#45;&gt;F4bis -->
<g id="edge17" class="edge"><title>F3ter&#45;&gt;F4bis</title>
</g>
<!-- F1bis -->
<g id="node9" class="node"><title>F1bis</title>
<ellipse fill="none" stroke="black" cx="267" cy="-18" rx="27" ry="18"/>
<text text-anchor="middle" x="267" y="-14.3" font-family="Times,serif" font-size="14.00">F1</text>
</g>
<!-- F3ter&#45;&gt;F1bis -->
<g id="edge7" class="edge"><title>F3ter&#45;&gt;F1bis</title>
<path fill="none" stroke="black" stroke-width="2" d="M309.016,-73.4647C300.067,-61.8645 287.892,-46.0816 278.951,-34.4918"/>
</g>
<!-- F2 -->
<g id="node10" class="node"><title>F2</title>
<ellipse fill="#ffb8b8" stroke="black" cx="339" cy="-18" rx="27" ry="18"/>
<text text-anchor="middle" x="339" y="-14.3" font-family="Times,serif" font-size="14.00">F2</text>
</g>
<!-- F3ter&#45;&gt;F2 -->
<g id="edge8" class="edge"><title>F3ter&#45;&gt;F2</title>
<path fill="none" stroke="black" stroke-width="2" d="M325.357,-72.055C328.187,-61.0492 331.861,-46.7636 334.683,-35.789"/>
</g>
<!-- dots2&#45;&gt;F4bis -->
<g id="edge3" class="edge"><title>dots2&#45;&gt;F4bis</title>
<path fill="none" stroke="black" stroke-width="2" d="M429,-143.728C429,-133.962 429,-119.403 429,-108.056"/>
</g>
<!-- F5 -->
<g id="node6" class="node"><title>F5</title>
<ellipse fill="#ffb8b8" stroke="black" cx="537" cy="-90" rx="27" ry="18"/>
<text text-anchor="middle" x="537" y="-86.3" font-family="Times,serif" font-size="14.00">F5</text>
</g>
<!-- dots2&#45;&gt;F5 -->
<g id="edge4" class="edge"><title>dots2&#45;&gt;F5</title>
<path fill="none" stroke="black" stroke-width="2" d="M444.936,-145.13C464.181,-133.815 496.552,-114.782 517.332,-102.564"/>
</g>
<!-- F4bis&#45;&gt;F5 -->
<g id="edge18" class="edge"><title>F4bis&#45;&gt;F5</title>
</g>
<!-- F2bis -->
<g id="node11" class="node"><title>F2bis</title>
<ellipse fill="none" stroke="black" cx="411" cy="-18" rx="27" ry="18"/>
<text text-anchor="middle" x="411" y="-14.3" font-family="Times,serif" font-size="14.00">F2</text>
</g>
<!-- F4bis&#45;&gt;F2bis -->
<g id="edge9" class="edge"><title>F4bis&#45;&gt;F2bis</title>
<path fill="none" stroke="black" stroke-width="2" d="M424.643,-72.055C421.813,-61.0492 418.139,-46.7636 415.317,-35.789"/>
</g>
<!-- F3 -->
<g id="node12" class="node"><title>F3</title>
<ellipse fill="#ffb8b8" stroke="black" cx="483" cy="-18" rx="27" ry="18"/>
<text text-anchor="middle" x="483" y="-14.3" font-family="Times,serif" font-size="14.00">F3</text>
</g>
<!-- F4bis&#45;&gt;F3 -->
<g id="edge10" class="edge"><title>F4bis&#45;&gt;F3</title>
<path fill="none" stroke="black" stroke-width="2" d="M440.984,-73.4647C449.933,-61.8645 462.108,-46.0816 471.049,-34.4918"/>
</g>
<!-- F3bis -->
<g id="node13" class="node"><title>F3bis</title>
<ellipse fill="none" stroke="black" cx="555" cy="-18" rx="27" ry="18"/>
<text text-anchor="middle" x="555" y="-14.3" font-family="Times,serif" font-size="14.00">F3</text>
</g>
<!-- F5&#45;&gt;F3bis -->
<g id="edge11" class="edge"><title>F5&#45;&gt;F3bis</title>
<path fill="none" stroke="black" stroke-width="2" d="M541.357,-72.055C544.187,-61.0492 547.861,-46.7636 550.683,-35.789"/>
</g>
<!-- F4 -->
<g id="node14" class="node"><title>F4</title>
<ellipse fill="#ffb8b8" stroke="black" cx="627" cy="-18" rx="27" ry="18"/>
<text text-anchor="middle" x="627" y="-14.3" font-family="Times,serif" font-size="14.00">F4</text>
</g>
<!-- F5&#45;&gt;F4 -->
<g id="edge12" class="edge"><title>F5&#45;&gt;F4</title>
<path fill="none" stroke="black" stroke-width="2" d="M553.928,-75.8335C570.019,-63.3186 594.082,-44.6028 610.148,-32.1074"/>
</g>
<!-- F0&#45;&gt;F1 -->
<g id="edge19" class="edge"><title>F0&#45;&gt;F1</title>
</g>
<!-- F1&#45;&gt;F1bis -->
<g id="edge20" class="edge"><title>F1&#45;&gt;F1bis</title>
</g>
<!-- F1bis&#45;&gt;F2 -->
<g id="edge21" class="edge"><title>F1bis&#45;&gt;F2</title>
</g>
<!-- F2&#45;&gt;F2bis -->
<g id="edge22" class="edge"><title>F2&#45;&gt;F2bis</title>
</g>
<!-- F2bis&#45;&gt;F3 -->
<g id="edge23" class="edge"><title>F2bis&#45;&gt;F3</title>
</g>
<!-- F3&#45;&gt;F3bis -->
<g id="edge24" class="edge"><title>F3&#45;&gt;F3bis</title>
</g>
<!-- F3bis&#45;&gt;F4 -->
<g id="edge25" class="edge"><title>F3bis&#45;&gt;F4</title>
</g>
<!-- out1 -->
<g id="node15" class="node"><title>out1</title>
<text text-anchor="middle" x="39" y="-14.3" font-family="Times,serif" font-size="14.00" fill="red">start here...</text>
</g>
<!-- out1&#45;&gt;F0 -->
<g id="edge13" class="edge"><title>out1&#45;&gt;F0</title>
<path fill="none" stroke="red" d="M78.0469,-18C80.6589,-18 83.2709,-18 85.8829,-18"/>
<polygon fill="red" stroke="red" points="85.9579,-21.5001 95.9579,-18 85.9579,-14.5001 85.9579,-21.5001"/>
</g>
<!-- out2 -->
<g id="node16" class="node"><title>out2</title>
<text text-anchor="middle" x="129" y="-86.3" font-family="Times,serif" font-size="14.00" fill="red">...then here</text>
</g>
<!-- out2&#45;&gt;F2ter -->
<g id="edge14" class="edge"><title>out2&#45;&gt;F2ter</title>
<path fill="none" stroke="red" d="M168.047,-90C170.659,-90 173.271,-90 175.883,-90"/>
<polygon fill="red" stroke="red" points="175.958,-93.5001 185.958,-90 175.958,-86.5001 175.958,-93.5001"/>
</g>
</g>
</svg>
